<?xml version="1.0" encoding="UTF-8"?>
<!DOCTYPE svg PUBLIC "-//W3C//DTD SVG 1.1//EN" "http://www.w3.org/Graphics/SVG/1.1/DTD/svg11.dtd">
<svg xmlns="http://www.w3.org/2000/svg" version="1.1" width="1080px" height="1080px" style="shape-rendering:geometricPrecision; text-rendering:geometricPrecision; image-rendering:optimizeQuality; fill-rule:evenodd; clip-rule:evenodd" xmlns:xlink="http://www.w3.org/1999/xlink">
<g><path style="opacity:1" fill="#fefefe" d="M -0.5,-0.5 C 359.5,-0.5 719.5,-0.5 1079.5,-0.5C 1079.5,359.5 1079.5,719.5 1079.5,1079.5C 719.5,1079.5 359.5,1079.5 -0.5,1079.5C -0.5,719.5 -0.5,359.5 -0.5,-0.5 Z"/></g>
<g><path style="opacity:1" fill="#010101" d="M 529.5,107.5 C 602.332,106.809 655.498,138.476 689,202.5C 696.838,219.35 701.838,237.017 704,255.5C 704.5,277.497 704.667,299.497 704.5,321.5C 741.502,321.333 778.502,321.5 815.5,322C 829.091,323.542 838.258,330.708 843,343.5C 861.324,538.095 878.991,732.761 896,927.5C 898.982,941.41 895.816,953.576 886.5,964C 881.157,968.004 875.157,970.337 868.5,971C 648.167,971.667 427.833,971.667 207.5,971C 194.446,968.279 186.279,960.446 183,947.5C 182.333,940.833 182.333,934.167 183,927.5C 200.282,732.773 217.948,538.106 236,343.5C 240.026,332.14 247.859,324.973 259.5,322C 297.832,321.5 336.165,321.333 374.5,321.5C 374.333,298.831 374.5,276.164 375,253.5C 384.61,192.919 416.777,149.086 471.5,122C 490.11,113.681 509.444,108.847 529.5,107.5 Z"/></g>
<g><path style="opacity:1" fill="#fefefe" d="M 525.5,169.5 C 574.25,166.117 610.084,185.783 633,228.5C 636.668,236.503 639.334,244.837 641,253.5C 642.435,276.128 642.935,298.794 642.5,321.5C 573.833,321.5 505.167,321.5 436.5,321.5C 436.076,298.465 436.576,275.465 438,252.5C 450.207,206.79 479.373,179.123 525.5,169.5 Z"/></g>
<g><path style="opacity:1" fill="#bababa" d="M 374.5,384.5 C 347.833,384.5 321.167,384.5 294.5,384.5C 294.802,387.059 294.468,389.393 293.5,391.5C 293.5,388.833 293.5,386.167 293.5,383.5C 320.672,383.169 347.672,383.502 374.5,384.5 Z"/></g>
<g><path style="opacity:1" fill="#bcbcbc" d="M 704.5,384.5 C 731.328,383.502 758.328,383.169 785.5,383.5C 785.5,384.833 785.5,386.167 785.5,387.5C 784.596,386.791 784.263,385.791 784.5,384.5C 757.833,384.5 731.167,384.5 704.5,384.5 Z"/></g>
<g><path style="opacity:1" fill="#fefefe" d="M 704.5,384.5 C 731.167,384.5 757.833,384.5 784.5,384.5C 784.263,385.791 784.596,386.791 785.5,387.5C 801.219,560.463 816.552,733.463 831.5,906.5C 831.5,907.5 831.5,908.5 831.5,909.5C 636.833,909.5 442.167,909.5 247.5,909.5C 262.173,736.768 277.506,564.101 293.5,391.5C 294.468,389.393 294.802,387.059 294.5,384.5C 321.167,384.5 347.833,384.5 374.5,384.5C 374.333,404.503 374.5,424.503 375,444.5C 380.321,463.581 392.821,471.747 412.5,469C 426.317,465.514 434.15,456.681 436,442.5C 436.5,422.836 436.667,403.169 436.5,383.5C 505.167,383.5 573.833,383.5 642.5,383.5C 642.056,405.212 642.556,426.878 644,448.5C 654.628,470.486 670.795,475.653 692.5,464C 698.772,458.957 702.606,452.457 704,444.5C 704.5,424.503 704.667,404.503 704.5,384.5 Z"/></g>
<g><path style="opacity:1" fill="#3c3c3c" d="M 831.5,906.5 C 832.434,907.568 832.768,908.901 832.5,910.5C 637.333,910.833 442.333,910.5 247.5,909.5C 442.167,909.5 636.833,909.5 831.5,909.5C 831.5,908.5 831.5,907.5 831.5,906.5 Z"/></g>
</svg>
