<?xml version="1.0" encoding="UTF-8"?>
<!DOCTYPE svg PUBLIC "-//W3C//DTD SVG 1.1//EN" "http://www.w3.org/Graphics/SVG/1.1/DTD/svg11.dtd">
<svg xmlns="http://www.w3.org/2000/svg" version="1.1" width="1080px" height="1080px" style="shape-rendering:geometricPrecision; text-rendering:geometricPrecision; image-rendering:optimizeQuality; fill-rule:evenodd; clip-rule:evenodd" xmlns:xlink="http://www.w3.org/1999/xlink">
<g><path style="opacity:1" fill="#fefefe" d="M -0.5,-0.5 C 359.5,-0.5 719.5,-0.5 1079.5,-0.5C 1079.5,359.5 1079.5,719.5 1079.5,1079.5C 719.5,1079.5 359.5,1079.5 -0.5,1079.5C -0.5,719.5 -0.5,359.5 -0.5,-0.5 Z"/></g>
<g><path style="opacity:1" fill="#050505" d="M 330.5,161.5 C 417.291,158.123 488.791,189.123 545,254.5C 592.264,195.287 654.097,164.954 730.5,163.5C 812.116,165.723 877.616,199.056 927,263.5C 975.689,335.719 984.022,412.386 952,493.5C 935.726,529.115 913.226,560.282 884.5,587C 771.667,697.167 658.833,807.333 546,917.5C 420.697,797.864 295.697,677.864 171,557.5C 126.038,507.201 105.038,448.201 108,380.5C 120.251,298.801 161.418,236.301 231.5,193C 262.382,175.538 295.382,165.038 330.5,161.5 Z"/></g>
<g><path style="opacity:1" fill="#fefefe" d="M 330.5,179.5 C 420.695,176.351 492.195,211.018 545,283.5C 602.854,201.847 681.354,169.68 780.5,187C 847.46,203.538 897.293,242.038 930,302.5C 965.904,379.968 960.57,454.301 914,525.5C 904.672,538.642 894.505,551.142 883.5,563C 771.104,672.613 658.604,782.113 546,891.5C 544.177,890.349 542.344,889.182 540.5,888C 532.803,879.969 524.803,872.302 516.5,865C 404.667,757.167 292.833,649.333 181,541.5C 131.336,482.844 115.67,416.178 134,341.5C 158.549,270.284 205.715,220.451 275.5,192C 293.502,185.746 311.836,181.58 330.5,179.5 Z"/></g>
</svg>
