<?xml version="1.0" encoding="UTF-8"?>
<!DOCTYPE svg PUBLIC "-//W3C//DTD SVG 1.1//EN" "http://www.w3.org/Graphics/SVG/1.1/DTD/svg11.dtd">
<svg xmlns="http://www.w3.org/2000/svg" version="1.1" width="1080px" height="1080px" style="shape-rendering:geometricPrecision; text-rendering:geometricPrecision; image-rendering:optimizeQuality; fill-rule:evenodd; clip-rule:evenodd" xmlns:xlink="http://www.w3.org/1999/xlink">
<g><path style="opacity:1" fill="#fefefe" d="M -0.5,-0.5 C 359.5,-0.5 719.5,-0.5 1079.5,-0.5C 1079.5,359.5 1079.5,719.5 1079.5,1079.5C 719.5,1079.5 359.5,1079.5 -0.5,1079.5C -0.5,719.5 -0.5,359.5 -0.5,-0.5 Z"/></g>
<g><path style="opacity:1" fill="#ef813f" d="M 543.5,169.5 C 536.077,177.956 535.077,177.289 540.5,167.5C 538.671,166.718 537.171,167.384 536,169.5C 534.349,173.745 533.016,178.079 532,182.5C 530.644,183.38 529.144,183.714 527.5,183.5C 530.874,176.575 534.541,169.741 538.5,163C 541.293,163.994 542.96,166.161 543.5,169.5 Z"/></g>
<g><path style="opacity:1" fill="#e18e5b" d="M 527.5,183.5 C 527.759,185.989 526.759,187.656 524.5,188.5C 524.75,186.326 525.75,184.659 527.5,183.5 Z"/></g>
<g><path style="opacity:1" fill="#f9782a" d="M 543.5,169.5 C 547.003,174.502 550.003,179.835 552.5,185.5C 553.036,188.555 553.869,191.555 555,194.5C 555.908,196.439 557.408,197.439 559.5,197.5C 579.339,230.343 598.339,263.676 616.5,297.5C 617.036,300.555 617.869,303.555 619,306.5C 619.908,308.439 621.408,309.439 623.5,309.5C 643.339,342.343 662.339,375.676 680.5,409.5C 681.036,412.555 681.869,415.555 683,418.5C 683.908,420.439 685.408,421.439 687.5,421.5C 707.339,454.343 726.339,487.676 744.5,521.5C 745.036,524.555 745.869,527.555 747,530.5C 747.908,532.439 749.408,533.439 751.5,533.5C 771.339,566.343 790.339,599.676 808.5,633.5C 809.036,636.555 809.869,639.555 811,642.5C 811.908,644.439 813.408,645.439 815.5,645.5C 835.339,678.343 854.339,711.676 872.5,745.5C 873.036,748.555 873.869,751.555 875,754.5C 875.908,756.439 877.408,757.439 879.5,757.5C 899.339,790.343 918.339,823.676 936.5,857.5C 937.036,860.555 937.869,863.555 939,866.5C 939.908,868.439 941.408,869.439 943.5,869.5C 951.423,881.224 958.423,893.557 964.5,906.5C 963.624,906.369 962.957,906.702 962.5,907.5C 963.246,908.736 963.579,910.07 963.5,911.5C 683.499,911.833 403.499,911.5 123.5,910.5C 121.914,908.827 121.247,906.827 121.5,904.5C 118.5,904.833 117.167,903.5 117.5,900.5C 124.129,886.576 131.796,873.242 140.5,860.5C 142.759,859.656 143.759,857.989 143.5,855.5C 145.997,849.835 148.997,844.502 152.5,839.5C 154,838.412 155.333,837.079 156.5,835.5C 157.255,832.675 158.255,830.009 159.5,827.5C 173.775,800.601 188.775,774.268 204.5,748.5C 206.759,747.656 207.759,745.989 207.5,743.5C 209.997,737.835 212.997,732.502 216.5,727.5C 218,726.412 219.333,725.079 220.5,723.5C 221.255,720.675 222.255,718.009 223.5,715.5C 237.775,688.601 252.775,662.268 268.5,636.5C 270.759,635.656 271.759,633.989 271.5,631.5C 273.997,625.835 276.997,620.502 280.5,615.5C 282,614.412 283.333,613.079 284.5,611.5C 285.072,609.083 286.072,606.916 287.5,605C 289.061,604.812 289.728,605.645 289.5,607.5C 290.833,607.5 292.167,607.5 293.5,607.5C 293.376,605.048 292.376,603.048 290.5,601.5C 290.608,600.558 290.941,599.725 291.5,599C 293.5,598.333 295.5,597.667 297.5,597C 295.709,594.894 295.042,592.394 295.5,589.5C 307.108,567.268 319.441,545.602 332.5,524.5C 334.759,523.656 335.759,521.989 335.5,519.5C 337.997,513.835 340.997,508.502 344.5,503.5C 346,502.412 347.333,501.079 348.5,499.5C 349.072,497.083 350.072,494.916 351.5,493C 353.061,492.812 353.728,493.645 353.5,495.5C 354.833,495.5 356.167,495.5 357.5,495.5C 357.376,493.048 356.376,491.048 354.5,489.5C 354.608,488.558 354.941,487.725 355.5,487C 357.5,486.333 359.5,485.667 361.5,485C 359.709,482.894 359.042,480.394 359.5,477.5C 371.108,455.268 383.441,433.602 396.5,412.5C 398.759,411.656 399.759,409.989 399.5,407.5C 401.997,401.835 404.997,396.502 408.5,391.5C 410,390.412 411.333,389.079 412.5,387.5C 413.072,385.083 414.072,382.916 415.5,381C 417.061,380.812 417.728,381.645 417.5,383.5C 418.833,383.5 420.167,383.5 421.5,383.5C 421.376,381.048 420.376,379.048 418.5,377.5C 418.608,376.558 418.941,375.725 419.5,375C 421.5,374.333 423.5,373.667 425.5,373C 423.709,370.894 423.042,368.394 423.5,365.5C 435.108,343.268 447.441,321.602 460.5,300.5C 462.759,299.656 463.759,297.989 463.5,295.5C 465.997,289.835 468.997,284.502 472.5,279.5C 474,278.412 475.333,277.079 476.5,275.5C 477.072,273.083 478.072,270.916 479.5,269C 481.061,268.812 481.728,269.645 481.5,271.5C 482.833,271.5 484.167,271.5 485.5,271.5C 485.376,269.048 484.376,267.048 482.5,265.5C 482.608,264.558 482.941,263.725 483.5,263C 485.5,262.333 487.5,261.667 489.5,261C 487.709,258.894 487.042,256.394 487.5,253.5C 499.108,231.268 511.441,209.602 524.5,188.5C 526.759,187.656 527.759,185.989 527.5,183.5C 529.144,183.714 530.644,183.38 532,182.5C 533.016,178.079 534.349,173.745 536,169.5C 537.171,167.384 538.671,166.718 540.5,167.5C 535.077,177.289 536.077,177.956 543.5,169.5 Z"/></g>
<g><path style="opacity:1" fill="#e98449" d="M 552.5,185.5 C 555.839,188.835 558.172,192.835 559.5,197.5C 557.408,197.439 555.908,196.439 555,194.5C 553.869,191.555 553.036,188.555 552.5,185.5 Z"/></g>
<g><path style="opacity:1" fill="#fedd59" d="M 895.5,868.5 C 896.925,869.922 897.925,871.589 898.5,873.5C 898.357,875.262 898.691,876.929 899.5,878.5C 779.333,878.833 659.167,879.167 539,879.5C 418.498,879.5 298.331,878.833 178.5,877.5C 181.256,870.237 185.089,863.57 190,857.5C 192.345,852.494 194.678,847.494 197,842.5C 203.858,831.558 210.525,820.558 217,809.5C 219.035,806.439 220.201,803.105 220.5,799.5C 221.5,799.5 222.5,799.5 223.5,799.5C 223.83,795.979 225.33,792.979 228,790.5C 235.431,774.748 244.097,759.748 254,745.5C 254.729,741.113 256.729,737.447 260,734.5C 265.995,723.177 271.995,711.844 278,700.5C 281.773,696.954 283.94,692.62 284.5,687.5C 285.5,687.5 286.5,687.5 287.5,687.5C 287.83,683.979 289.33,680.979 292,678.5C 299.431,662.748 308.097,647.748 318,633.5C 318.729,629.113 320.729,625.447 324,622.5C 329.995,611.177 335.995,599.844 342,588.5C 345.773,584.954 347.94,580.62 348.5,575.5C 349.5,575.5 350.5,575.5 351.5,575.5C 351.83,571.979 353.33,568.979 356,566.5C 364.239,550.294 373.239,534.627 383,519.5C 416.078,459.22 450.078,399.553 485,340.5C 492.746,324.884 501.412,309.884 511,295.5C 519.487,279.036 528.653,262.869 538.5,247C 539.167,246.333 539.833,246.333 540.5,247C 542.93,249.305 543.93,252.138 543.5,255.5C 544.675,255.281 545.675,255.614 546.5,256.5C 555.557,272.058 564.224,287.725 572.5,303.5C 573.5,303.5 574.5,303.5 575.5,303.5C 575.966,308.846 578.133,313.512 582,317.5C 590.032,332.555 598.366,347.555 607,362.5C 607.494,364.134 607.66,365.801 607.5,367.5C 608.675,367.281 609.675,367.614 610.5,368.5C 619.338,383.62 628.005,398.954 636.5,414.5C 637.325,415.386 638.325,415.719 639.5,415.5C 639.338,417.527 639.505,419.527 640,421.5C 650.695,438.87 661.028,456.537 671,474.5C 671.494,476.134 671.66,477.801 671.5,479.5C 672.675,479.281 673.675,479.614 674.5,480.5C 683.338,495.62 692.005,510.954 700.5,526.5C 701.325,527.386 702.325,527.719 703.5,527.5C 703.338,529.527 703.505,531.527 704,533.5C 714.695,550.87 725.028,568.537 735,586.5C 735.494,588.134 735.66,589.801 735.5,591.5C 736.675,591.281 737.675,591.614 738.5,592.5C 747.338,607.62 756.005,622.954 764.5,638.5C 765.325,639.386 766.325,639.719 767.5,639.5C 767.338,641.527 767.505,643.527 768,645.5C 778.695,662.87 789.028,680.537 799,698.5C 799.494,700.134 799.66,701.801 799.5,703.5C 800.675,703.281 801.675,703.614 802.5,704.5C 811.338,719.62 820.005,734.954 828.5,750.5C 829.325,751.386 830.325,751.719 831.5,751.5C 831.338,753.527 831.505,755.527 832,757.5C 842.695,774.87 853.028,792.537 863,810.5C 863.494,812.134 863.66,813.801 863.5,815.5C 864.675,815.281 865.675,815.614 866.5,816.5C 875.338,831.62 884.005,846.954 892.5,862.5C 893.325,863.386 894.325,863.719 895.5,863.5C 895.5,865.167 895.5,866.833 895.5,868.5 Z"/></g>
<g><path style="opacity:1" fill="#ef8042" d="M 487.5,253.5 C 487.042,256.394 487.709,258.894 489.5,261C 487.5,261.667 485.5,262.333 483.5,263C 482.941,263.725 482.608,264.558 482.5,265.5C 484.376,267.048 485.376,269.048 485.5,271.5C 484.167,271.5 482.833,271.5 481.5,271.5C 481.728,269.645 481.061,268.812 479.5,269C 478.072,270.916 477.072,273.083 476.5,275.5C 475.333,277.079 474,278.412 472.5,279.5C 474.178,276.298 475.678,272.965 477,269.5C 480.275,263.93 483.775,258.597 487.5,253.5 Z"/></g>
<g><path style="opacity:1" fill="#e18e5b" d="M 463.5,295.5 C 463.759,297.989 462.759,299.656 460.5,300.5C 460.75,298.326 461.75,296.659 463.5,295.5 Z"/></g>
<g><path style="opacity:1" fill="#e98449" d="M 616.5,297.5 C 619.839,300.835 622.172,304.835 623.5,309.5C 621.408,309.439 619.908,308.439 619,306.5C 617.869,303.555 617.036,300.555 616.5,297.5 Z"/></g>
<g><path style="opacity:1" fill="#ef8042" d="M 423.5,365.5 C 423.042,368.394 423.709,370.894 425.5,373C 423.5,373.667 421.5,374.333 419.5,375C 418.941,375.725 418.608,376.558 418.5,377.5C 420.376,379.048 421.376,381.048 421.5,383.5C 420.167,383.5 418.833,383.5 417.5,383.5C 417.728,381.645 417.061,380.812 415.5,381C 414.072,382.916 413.072,385.083 412.5,387.5C 411.333,389.079 410,390.412 408.5,391.5C 410.178,388.298 411.678,384.965 413,381.5C 416.275,375.93 419.775,370.597 423.5,365.5 Z"/></g>
<g><path style="opacity:1" fill="#e18e5b" d="M 399.5,407.5 C 399.759,409.989 398.759,411.656 396.5,412.5C 396.75,410.326 397.75,408.659 399.5,407.5 Z"/></g>
<g><path style="opacity:1" fill="#e98449" d="M 680.5,409.5 C 683.839,412.835 686.172,416.835 687.5,421.5C 685.408,421.439 683.908,420.439 683,418.5C 681.869,415.555 681.036,412.555 680.5,409.5 Z"/></g>
<g><path style="opacity:1" fill="#ef8042" d="M 359.5,477.5 C 359.042,480.394 359.709,482.894 361.5,485C 359.5,485.667 357.5,486.333 355.5,487C 354.941,487.725 354.608,488.558 354.5,489.5C 356.376,491.048 357.376,493.048 357.5,495.5C 356.167,495.5 354.833,495.5 353.5,495.5C 353.728,493.645 353.061,492.812 351.5,493C 350.072,494.916 349.072,497.083 348.5,499.5C 347.333,501.079 346,502.412 344.5,503.5C 346.178,500.298 347.678,496.965 349,493.5C 352.275,487.93 355.775,482.597 359.5,477.5 Z"/></g>
<g><path style="opacity:1" fill="#e18e5b" d="M 335.5,519.5 C 335.759,521.989 334.759,523.656 332.5,524.5C 332.75,522.326 333.75,520.659 335.5,519.5 Z"/></g>
<g><path style="opacity:1" fill="#e98449" d="M 744.5,521.5 C 747.839,524.835 750.172,528.835 751.5,533.5C 749.408,533.439 747.908,532.439 747,530.5C 745.869,527.555 745.036,524.555 744.5,521.5 Z"/></g>
<g><path style="opacity:1" fill="#ef8042" d="M 295.5,589.5 C 295.042,592.394 295.709,594.894 297.5,597C 295.5,597.667 293.5,598.333 291.5,599C 290.941,599.725 290.608,600.558 290.5,601.5C 292.376,603.048 293.376,605.048 293.5,607.5C 292.167,607.5 290.833,607.5 289.5,607.5C 289.728,605.645 289.061,604.812 287.5,605C 286.072,606.916 285.072,609.083 284.5,611.5C 283.333,613.079 282,614.412 280.5,615.5C 282.178,612.298 283.678,608.965 285,605.5C 288.275,599.93 291.775,594.597 295.5,589.5 Z"/></g>
<g><path style="opacity:1" fill="#e18e5b" d="M 271.5,631.5 C 271.759,633.989 270.759,635.656 268.5,636.5C 268.75,634.326 269.75,632.659 271.5,631.5 Z"/></g>
<g><path style="opacity:1" fill="#e98449" d="M 808.5,633.5 C 811.839,636.835 814.172,640.835 815.5,645.5C 813.408,645.439 811.908,644.439 811,642.5C 809.869,639.555 809.036,636.555 808.5,633.5 Z"/></g>
<g><path style="opacity:1" fill="#f18855" d="M 223.5,715.5 C 222.255,718.009 221.255,720.675 220.5,723.5C 219.333,725.079 218,726.412 216.5,727.5C 218.178,724.298 219.678,720.965 221,717.5C 221.708,716.619 222.542,715.953 223.5,715.5 Z"/></g>
<g><path style="opacity:1" fill="#e18e5b" d="M 207.5,743.5 C 207.759,745.989 206.759,747.656 204.5,748.5C 204.75,746.326 205.75,744.659 207.5,743.5 Z"/></g>
<g><path style="opacity:1" fill="#e98449" d="M 872.5,745.5 C 875.839,748.835 878.172,752.835 879.5,757.5C 877.408,757.439 875.908,756.439 875,754.5C 873.869,751.555 873.036,748.555 872.5,745.5 Z"/></g>
<g><path style="opacity:1" fill="#f18855" d="M 159.5,827.5 C 158.255,830.009 157.255,832.675 156.5,835.5C 155.333,837.079 154,838.412 152.5,839.5C 154.178,836.298 155.678,832.965 157,829.5C 157.708,828.619 158.542,827.953 159.5,827.5 Z"/></g>
<g><path style="opacity:1" fill="#e18e5b" d="M 143.5,855.5 C 143.759,857.989 142.759,859.656 140.5,860.5C 140.75,858.326 141.75,856.659 143.5,855.5 Z"/></g>
<g><path style="opacity:1" fill="#e98449" d="M 936.5,857.5 C 939.839,860.835 942.172,864.835 943.5,869.5C 941.408,869.439 939.908,868.439 939,866.5C 937.869,863.555 937.036,860.555 936.5,857.5 Z"/></g>
<g><path style="opacity:1" fill="#fece67" d="M 898.5,873.5 C 900.166,875.187 901.5,877.187 902.5,879.5C 660.168,880.5 417.834,880.833 175.5,880.5C 176.167,879.167 177.167,878.167 178.5,877.5C 298.331,878.833 418.498,879.5 539,879.5C 659.167,879.167 779.333,878.833 899.5,878.5C 898.691,876.929 898.357,875.262 898.5,873.5 Z"/></g>
<g><path style="opacity:1" fill="#ea8225" d="M 895.5,868.5 C 896.822,868.33 897.989,868.663 899,869.5C 900.387,873.538 902.553,877.038 905.5,880C 902.635,882.286 899.302,883.12 895.5,882.5C 655.5,882.5 415.5,882.5 175.5,882.5C 175.5,881.833 175.5,881.167 175.5,880.5C 417.834,880.833 660.168,880.5 902.5,879.5C 901.5,877.187 900.166,875.187 898.5,873.5C 897.925,871.589 896.925,869.922 895.5,868.5 Z"/></g>
<g><path style="opacity:1" fill="#fd7626" d="M 175.5,882.5 C 415.5,882.5 655.5,882.5 895.5,882.5C 895.5,883.5 895.5,884.5 895.5,885.5C 655.5,885.5 415.5,885.5 175.5,885.5C 175.5,884.5 175.5,883.5 175.5,882.5 Z"/></g>
<g><path style="opacity:1" fill="#f37b2c" d="M 175.5,886.5 C 415.501,886.167 655.501,886.5 895.5,887.5C 775.5,887.833 655.5,888.167 535.5,888.5C 415.165,888.5 295.165,887.833 175.5,886.5 Z"/></g>
<g><path style="opacity:1" fill="#fe742a" d="M 175.5,890.5 C 415.501,890.167 655.501,890.5 895.5,891.5C 775.5,891.833 655.5,892.167 535.5,892.5C 415.165,892.5 295.165,891.833 175.5,890.5 Z"/></g>
<g><path style="opacity:1" fill="#f27c26" d="M 175.5,893.5 C 415.501,893.167 655.501,893.5 895.5,894.5C 775.5,894.833 655.5,895.167 535.5,895.5C 415.165,895.5 295.165,894.833 175.5,893.5 Z"/></g>
<g><path style="opacity:1" fill="#f67925" d="M 117.5,900.5 C 117.167,903.5 118.5,904.833 121.5,904.5C 121.247,906.827 121.914,908.827 123.5,910.5C 403.499,911.5 683.499,911.833 963.5,911.5C 963.579,910.07 963.246,908.736 962.5,907.5C 962.957,906.702 963.624,906.369 964.5,906.5C 965.15,908.435 965.483,910.435 965.5,912.5C 680.666,912.833 396,912.5 111.5,911.5C 113.25,907.665 115.25,903.999 117.5,900.5 Z"/></g>
<g><path style="opacity:1" fill="#f37937" d="M 964.5,906.5 C 966.25,907.659 967.25,909.326 967.5,911.5C 966.167,912.5 966.167,913.5 967.5,914.5C 681.831,913.834 396.498,914.501 111.5,916.5C 110.167,916.5 109.5,915.833 109.5,914.5C 109.557,913.391 109.89,912.391 110.5,911.5C 110.833,911.5 111.167,911.5 111.5,911.5C 396,912.5 680.666,912.833 965.5,912.5C 965.483,910.435 965.15,908.435 964.5,906.5 Z"/></g>
<g><path style="opacity:1" fill="#e18137" d="M 967.5,911.5 C 968.728,912.306 969.728,913.306 970.5,914.5C 970.5,915.5 970.5,916.5 970.5,917.5C 683.167,917.5 395.833,917.5 108.5,917.5C 108.263,916.209 108.596,915.209 109.5,914.5C 109.5,915.833 110.167,916.5 111.5,916.5C 397.167,916.667 682.834,916.5 968.5,916C 967.944,915.617 967.611,915.117 967.5,914.5C 966.167,913.5 966.167,912.5 967.5,911.5 Z"/></g>
<g><path style="opacity:1" fill="#fefae2" d="M 110.5,911.5 C 109.89,912.391 109.557,913.391 109.5,914.5C 108.596,915.209 108.263,916.209 108.5,917.5C 395.833,917.5 683.167,917.5 970.5,917.5C 970.5,916.5 970.5,915.5 970.5,914.5C 977.165,915.834 977.165,917.167 970.5,918.5C 682.71,918.503 395.043,918.503 107.5,918.5C 106.036,915.096 107.036,912.762 110.5,911.5 Z"/></g>
<g><path style="opacity:1" fill="#fe721d" d="M 967.5,914.5 C 967.611,915.117 967.944,915.617 968.5,916C 682.834,916.5 397.167,916.667 111.5,916.5C 396.498,914.501 681.831,913.834 967.5,914.5 Z"/></g>
<g><path style="opacity:1" fill="#f3fefe" d="M 107.5,918.5 C 395.043,918.503 682.71,918.503 970.5,918.5C 970.389,919.117 970.056,919.617 969.5,920C 683.5,920.333 397.5,920.667 111.5,921C 107.727,921.012 104.394,922.179 101.5,924.5C 101.167,924.333 100.833,924.167 100.5,924C 102.746,922.743 104.079,920.91 104.5,918.5C 105.5,918.5 106.5,918.5 107.5,918.5 Z"/></g>
<g><path style="opacity:1" fill="#fafef7" d="M 111.5,923.5 C 394.167,923.333 676.834,923.5 959.5,924C 961.087,924.862 962.754,925.529 964.5,926C 963.128,926.402 961.795,926.902 960.5,927.5C 677.305,926.168 394.305,924.835 111.5,923.5 Z"/></g>
</svg>
