<?xml version="1.0" standalone="no"?>
<!DOCTYPE svg PUBLIC "-//W3C//DTD SVG 20010904//EN"
 "http://www.w3.org/TR/2001/REC-SVG-20010904/DTD/svg10.dtd">
<svg version="1.0" xmlns="http://www.w3.org/2000/svg"
 width="1080.000000pt" height="1080.000000pt" viewBox="0 0 1080.000000 1080.000000"
 preserveAspectRatio="xMidYMid meet">

<g transform="translate(0.000000,1080.000000) scale(0.100000,-0.100000)"
fill="#000000" stroke="none">
<path d="M1142 8990 c-36 -22 -62 -72 -62 -118 0 -39 38 -93 80 -114 33 -17
257 -18 4240 -18 3984 0 4207 1 4239 18 96 48 105 179 17 233 -30 18 -140 19
-4256 19 -4220 0 -4225 0 -4258 -20z"/>
<path d="M1160 5522 c-43 -21 -80 -75 -80 -116 0 -40 28 -94 60 -118 24 -17
176 -18 4254 -18 4044 0 4230 1 4260 18 90 52 82 185 -15 234 -32 17 -255 18
-4239 18 -3983 0 -4207 -1 -4240 -18z"/>
<path d="M1125 2017 c-39 -39 -50 -72 -40 -124 9 -49 61 -98 112 -106 21 -4
1917 -7 4213 -6 4443 0 4219 -2 4271 45 54 48 46 152 -15 199 l-33 25 -4237 0
-4238 0 -33 -33z"/>
</g>
</svg>
